<svg xmlns="http://www.w3.org/2000/svg" xmlns:xlink="http://www.w3.org/1999/xlink" width="500" zoomAndPan="magnify" viewBox="0 0 375 374.999991" height="500" preserveAspectRatio="xMidYMid meet" version="1.0"><defs><g/><clipPath id="c1aafd11c9"><rect x="0" width="375" y="0" height="281"/></clipPath></defs><rect x="-37.5" width="450" fill="#ffffff00" y="-37.499999" height="449.999989" fill-opacity="1"/><rect x="-37.5" width="450" fill="#ffffff00" y="-37.499999" height="449.999989" fill-opacity="1"/><g transform="matrix(1, 0, 0, 1, 0, 78)"><g clip-path="url(#c1aafd11c9)"><g fill="#ffffffff" fill-opacity="1"><g transform="translate(-18.279582, 227.809377)"><g><path d="M 111.609375 -168.640625 C 127.960938 -168.640625 142.628906 -164.957031 155.609375 -157.59375 C 168.585938 -150.238281 178.804688 -140.171875 186.265625 -127.390625 C 193.734375 -114.617188 197.46875 -99.957031 197.46875 -83.40625 C 197.46875 -66.84375 193.6875 -52.019531 186.125 -38.9375 C 178.5625 -25.851562 168.1875 -15.582031 155 -8.125 C 141.8125 -0.664062 126.734375 3.0625 109.765625 3.0625 C 93.003906 3.0625 78.03125 -0.664062 64.84375 -8.125 C 51.664062 -15.582031 41.34375 -25.90625 33.875 -39.09375 C 26.414062 -52.28125 22.6875 -67.457031 22.6875 -84.625 L 22.6875 -226.296875 L 46 -226.296875 L 46 -136.453125 C 53.5625 -147.285156 63.164062 -155.359375 74.8125 -160.671875 C 86.46875 -165.984375 98.734375 -168.640625 111.609375 -168.640625 Z M 110.078125 -18.09375 C 122.546875 -18.09375 133.582031 -20.851562 143.1875 -26.375 C 152.800781 -31.894531 160.363281 -39.554688 165.875 -49.359375 C 171.394531 -59.171875 174.15625 -70.414062 174.15625 -83.09375 C 174.15625 -95.96875 171.394531 -107.257812 165.875 -116.96875 C 160.363281 -126.6875 152.75 -134.253906 143.03125 -139.671875 C 133.320312 -145.085938 122.234375 -147.796875 109.765625 -147.796875 C 97.503906 -147.796875 86.566406 -145.085938 76.953125 -139.671875 C 67.347656 -134.253906 59.785156 -126.6875 54.265625 -116.96875 C 48.753906 -107.257812 46 -95.96875 46 -83.09375 C 46 -70.414062 48.753906 -59.171875 54.265625 -49.359375 C 59.785156 -39.554688 67.398438 -31.894531 77.109375 -26.375 C 86.828125 -20.851562 97.816406 -18.09375 110.078125 -18.09375 Z M 110.078125 -18.09375 "/></g></g></g><g fill="#ffffffff" fill-opacity="1"><g transform="translate(179.801196, 227.809377)"><g><path d="M 167.71875 -226.296875 L 190.71875 -226.296875 L 190.71875 -84.625 C 190.71875 -67.457031 186.988281 -52.28125 179.53125 -39.09375 C 172.070312 -25.90625 161.800781 -15.582031 148.71875 -8.125 C 135.632812 -0.664062 120.609375 3.0625 103.640625 3.0625 C 86.671875 3.0625 71.59375 -0.664062 58.40625 -8.125 C 45.226562 -15.582031 34.90625 -25.851562 27.4375 -38.9375 C 19.976562 -52.019531 16.25 -66.84375 16.25 -83.40625 C 16.25 -99.957031 19.976562 -114.617188 27.4375 -127.390625 C 34.90625 -140.171875 45.078125 -150.238281 57.953125 -157.59375 C 70.828125 -164.957031 85.441406 -168.640625 101.796875 -168.640625 C 114.878906 -168.640625 127.242188 -165.929688 138.890625 -160.515625 C 150.546875 -155.097656 160.15625 -146.972656 167.71875 -136.140625 Z M 103.328125 -18.09375 C 115.796875 -18.09375 126.882812 -20.851562 136.59375 -26.375 C 146.3125 -31.894531 153.925781 -39.554688 159.4375 -49.359375 C 164.957031 -59.171875 167.71875 -70.414062 167.71875 -83.09375 C 167.71875 -95.96875 164.957031 -107.257812 159.4375 -116.96875 C 153.925781 -126.6875 146.363281 -134.253906 136.75 -139.671875 C 127.144531 -145.085938 116.109375 -147.796875 103.640625 -147.796875 C 91.171875 -147.796875 80.082031 -145.085938 70.375 -139.671875 C 60.664062 -134.253906 53.050781 -126.6875 47.53125 -116.96875 C 42.007812 -107.257812 39.25 -95.96875 39.25 -83.09375 C 39.25 -70.414062 42.007812 -59.171875 47.53125 -49.359375 C 53.050781 -39.554688 60.664062 -31.894531 70.375 -26.375 C 80.082031 -20.851562 91.066406 -18.09375 103.328125 -18.09375 Z M 103.328125 -18.09375 "/></g></g></g></g></g></svg>