<svg xmlns="http://www.w3.org/2000/svg" xmlns:xlink="http://www.w3.org/1999/xlink" width="600" zoomAndPan="magnify" viewBox="0 0 450 299.999988" height="400" preserveAspectRatio="xMidYMid meet" version="1.0"><defs><g/><clipPath id="1569567c23"><rect x="0" width="450" y="0" height="291"/></clipPath></defs><g transform="matrix(1, 0, 0, 1, 0, 9)"><g clip-path="url(#1569567c23)"><g fill="#000000" fill-opacity="1"><g transform="translate(-24.707003, 276.76338)"><g><path d="M 135.4375 -204.65625 C 155.28125 -204.65625 173.078125 -200.1875 188.828125 -191.25 C 204.585938 -182.320312 216.992188 -170.101562 226.046875 -154.59375 C 235.097656 -139.09375 239.625 -121.296875 239.625 -101.203125 C 239.625 -81.109375 235.035156 -63.125 225.859375 -47.25 C 216.679688 -31.375 204.09375 -18.910156 188.09375 -9.859375 C 172.09375 -0.804688 153.796875 3.71875 133.203125 3.71875 C 112.867188 3.71875 94.703125 -0.804688 78.703125 -9.859375 C 62.703125 -18.910156 50.171875 -31.4375 41.109375 -47.4375 C 32.054688 -63.4375 27.53125 -81.859375 27.53125 -102.703125 L 27.53125 -274.609375 L 55.8125 -274.609375 L 55.8125 -165.578125 C 64.988281 -178.722656 76.644531 -188.519531 90.78125 -194.96875 C 104.925781 -201.425781 119.8125 -204.65625 135.4375 -204.65625 Z M 133.578125 -21.953125 C 148.710938 -21.953125 162.109375 -25.300781 173.765625 -32 C 185.421875 -38.695312 194.597656 -48 201.296875 -59.90625 C 207.992188 -71.8125 211.34375 -85.457031 211.34375 -100.84375 C 211.34375 -116.46875 207.992188 -130.171875 201.296875 -141.953125 C 194.597656 -153.734375 185.359375 -162.910156 173.578125 -169.484375 C 161.796875 -176.054688 148.335938 -179.34375 133.203125 -179.34375 C 118.328125 -179.34375 105.054688 -176.054688 93.390625 -169.484375 C 81.734375 -162.910156 72.554688 -153.734375 65.859375 -141.953125 C 59.160156 -130.171875 55.8125 -116.46875 55.8125 -100.84375 C 55.8125 -85.457031 59.160156 -71.8125 65.859375 -59.90625 C 72.554688 -48 81.796875 -38.695312 93.578125 -32 C 105.359375 -25.300781 118.691406 -21.953125 133.578125 -21.953125 Z M 133.578125 -21.953125 "/></g></g></g><g fill="#000000" fill-opacity="1"><g transform="translate(215.6594, 276.76338)"><g><path d="M 203.53125 -274.609375 L 231.4375 -274.609375 L 231.4375 -102.703125 C 231.4375 -81.859375 226.910156 -63.4375 217.859375 -47.4375 C 208.804688 -31.4375 196.34375 -18.910156 180.46875 -9.859375 C 164.59375 -0.804688 146.359375 3.71875 125.765625 3.71875 C 105.179688 3.71875 86.890625 -0.804688 70.890625 -9.859375 C 54.890625 -18.910156 42.359375 -31.375 33.296875 -47.25 C 24.242188 -63.125 19.71875 -81.109375 19.71875 -101.203125 C 19.71875 -121.296875 24.242188 -139.09375 33.296875 -154.59375 C 42.359375 -170.101562 54.703125 -182.320312 70.328125 -191.25 C 85.953125 -200.1875 103.6875 -204.65625 123.53125 -204.65625 C 139.40625 -204.65625 154.410156 -201.367188 168.546875 -194.796875 C 182.691406 -188.222656 194.351562 -178.359375 203.53125 -165.203125 Z M 125.390625 -21.953125 C 140.523438 -21.953125 153.984375 -25.300781 165.765625 -32 C 177.546875 -38.695312 186.785156 -48 193.484375 -59.90625 C 200.179688 -71.8125 203.53125 -85.457031 203.53125 -100.84375 C 203.53125 -116.46875 200.179688 -130.171875 193.484375 -141.953125 C 186.785156 -153.734375 177.609375 -162.910156 165.953125 -169.484375 C 154.296875 -176.054688 140.898438 -179.34375 125.765625 -179.34375 C 110.628906 -179.34375 97.171875 -176.054688 85.390625 -169.484375 C 73.609375 -162.910156 64.367188 -153.734375 57.671875 -141.953125 C 50.972656 -130.171875 47.625 -116.46875 47.625 -100.84375 C 47.625 -85.457031 50.972656 -71.8125 57.671875 -59.90625 C 64.367188 -48 73.609375 -38.695312 85.390625 -32 C 97.171875 -25.300781 110.503906 -21.953125 125.390625 -21.953125 Z M 125.390625 -21.953125 "/></g></g></g></g></g></svg>